HIERARCHY
ROOT hip
{
	OFFSET 0.000000 0.000000 0.000000 
	CHANNELS 6 Xposition Yposition Zposition Xrotation Zrotation Yrotation
	JOINT abdomen
	{
		OFFSET 0.000000 3.402643 0.000000 
		CHANNELS 3 Xrotation Zrotation Yrotation
		JOINT chest
		{
			OFFSET 0.000000 8.438565 -0.680529 
			CHANNELS 3 Xrotation Zrotation Yrotation
			JOINT neck
			{
				OFFSET 0.000000 10.207942 -0.272212 
				CHANNELS 3 Xrotation Zrotation Yrotation
				JOINT head
				{
					OFFSET 0.000000 3.130431 0.000000 
					CHANNELS 3 Xrotation Zrotation Yrotation
					End Site
					{
						OFFSET 0.000000 3.130435 0.000000 
					}
				}
			}
			JOINT lCollar
			{
				OFFSET 3.470700 6.669187 -0.816635 
				CHANNELS 3 Yrotation Zrotation Xrotation
				JOINT lShldr
				{
					OFFSET 3.198488 0.000000 0.000000 
					CHANNELS 3 Zrotation Yrotation Xrotation
					JOINT lForeArm
					{
						OFFSET 10.139888 0.000000 0.000000 
						CHANNELS 3 Yrotation Zrotation Xrotation
						JOINT lHand
						{
							OFFSET 8.370511 0.000000 0.000000 
							CHANNELS 3 Zrotation Yrotation Xrotation
							End Site
							{
								OFFSET 4.083176 0.000000 0.000000 
							}
						}
					}
				}
			}
			JOINT rCollar
			{
				OFFSET -3.470700 6.669187 -0.816635 
				CHANNELS 3 Yrotation Zrotation Xrotation
				JOINT rShldr
				{
					OFFSET -3.198488 0.000000 0.000000 
					CHANNELS 3 Zrotation Yrotation Xrotation
					JOINT rForeArm
					{
						OFFSET -10.139888 0.000000 0.000000 
						CHANNELS 3 Yrotation Zrotation Xrotation
						JOINT rHand
						{
							OFFSET -8.370511 0.000000 0.000000 
							CHANNELS 3 Zrotation Yrotation Xrotation
							End Site
							{
								OFFSET -4.083176 0.000000 0.000000 
							}
						}
					}
				}
			}
		}
	}
	JOINT lThigh
	{
		OFFSET 5.308129 -1.633274 1.361059 
		CHANNELS 3 Xrotation Zrotation Yrotation
		JOINT lShin
		{
			OFFSET -2.041588 -20.007561 0.000000 
			CHANNELS 3 Xrotation Zrotation Yrotation
			JOINT lFoot
			{
				OFFSET 0.000000 -19.190928 -1.224953 
				CHANNELS 3 Xrotation Yrotation Zrotation
				End Site
				{
					OFFSET 0.000000 -2.449906 4.627600 
				}
			}
		}
	}
	JOINT rThigh
	{
		OFFSET -5.308129 -1.633274 1.361059 
		CHANNELS 3 Xrotation Zrotation Yrotation
		JOINT rShin
		{
			OFFSET 2.041588 -20.007561 0.000000 
			CHANNELS 3 Xrotation Zrotation Yrotation
			JOINT rFoot
			{
				OFFSET 0.000000 -19.190928 -1.224953 
				CHANNELS 3 Xrotation Yrotation Zrotation
				End Site
				{
					OFFSET 0.000000 -2.449906 4.627600 
				}
			}
		}
	}
}
MOTION
Frames: 20
Frame Time: 0.033333
-2.946739 50.211884 -5.902679 -15.019531 -5.283204 1.572266 0.000000 0.000000 0.000000 15.214846 6.777344 -4.481270 28.964844 -2.412109 -3.369551 -7.099609 -8.671875 0.398918 -12.841797 -7.978516 14.335937 -56.318359 -32.724609 -4.585357 -133.593750 1.572266 12.636450 27.724611 -38.613281 17.611095 1.757813 15.839844 12.966084 53.544922 9.101563 68.058182 10.761720 -13.183594 6.867462 -7.812500 5.224610 -29.628902 2.110056 19.240305 -7.791860 24.880228 -0.709765 -1.491055 -8.917884 2.670550 -12.907275 7.768860 9.029743 12.811993 18.513351 -3.176944 -0.257032 -10.276285 -12.225751 0.477877 
-2.738235 50.267456 -5.974743 -14.472657 -4.951172 1.425781 0.000000 0.000000 0.000000 15.214844 6.611328 -4.530038 28.769531 -2.412109 -3.408614 -7.099609 -8.496094 0.605469 -12.851563 -8.154297 14.287110 -56.357422 -32.783203 -4.058020 -133.242188 1.630867 12.656033 29.345703 -39.912109 17.871094 1.757813 15.673827 12.978518 53.417969 9.257812 68.771095 11.123047 -13.203125 6.914062 -7.441407 6.308594 -24.101563 1.768262 18.915941 -7.480784 25.067331 -0.626905 -1.492566 -9.274282 0.960459 -12.545173 7.233840 8.669933 13.545584 18.371023 -3.193818 -0.241776 -10.093468 -12.687604 1.074060 
-2.489540 50.323456 -6.038639 -13.945312 -4.794922 1.337075 0.000000 0.000000 0.000000 15.205078 6.259766 -4.618076 28.769531 -2.597656 -3.369583 -7.109375 -8.330078 0.613820 -12.861329 -8.496095 14.208983 -56.054691 -32.812504 -3.320313 -132.714844 1.601563 12.812169 31.162109 -41.171875 18.030680 1.757813 15.322266 12.985699 53.720703 9.492188 68.554688 11.298828 -13.203124 6.945590 -6.865235 7.246094 -19.746094 1.416862 18.265318 -7.948439 25.062115 -0.709678 -1.334011 -9.705284 0.169865 -11.965931 6.726355 8.162392 13.771974 18.155085 -3.369283 -0.103105 -10.041634 -13.092439 1.281980 
-2.193702 50.381203 -6.084902 -13.417968 -4.628906 1.444524 0.000000 0.000000 0.000000 15.205078 6.103516 -4.666930 28.554688 -2.646484 -3.242188 -7.285156 -8.330079 0.818898 -12.705078 -8.623047 14.150391 -56.074219 -32.851563 -2.798268 -132.539063 1.621094 12.821990 32.128906 -41.621094 18.027346 1.933594 15.195313 12.978518 54.189453 9.560547 68.175453 11.298828 -13.203124 6.945590 -6.064453 7.714845 -16.425779 1.231128 17.600695 -8.547882 24.711126 -0.733279 -1.293373 -9.900866 0.086944 -11.797531 6.284394 7.506479 14.329307 17.947491 -3.349245 -0.277356 -9.798220 -13.209248 1.816246 
-1.847066 50.443764 -6.104976 -12.871093 -4.287109 1.483645 0.000000 0.000000 0.000000 15.195313 5.761719 -4.579098 28.564451 -2.988281 -3.242188 -7.470704 -8.144533 1.044922 -12.705078 -8.964844 14.082031 -55.927734 -32.880863 -2.349052 -132.714844 1.601563 12.812169 32.802731 -41.367184 17.880857 1.933594 14.833986 12.985780 54.658203 9.619140 67.744141 11.123047 -13.203125 6.914062 -5.478516 7.929687 -15.029297 1.231206 16.582689 -9.711462 23.822689 -0.733196 -1.252368 -10.123582 1.143624 -11.299243 5.833412 6.743602 14.175432 17.796263 -3.196982 -0.267680 -9.536858 -13.545560 2.062674 
-1.451072 50.520733 -6.099134 -12.529297 -3.955078 1.386045 0.000000 0.000000 0.000000 15.175780 5.429688 -4.511658 28.525393 -3.173828 -3.203666 -7.470704 -8.144533 1.044922 -12.558594 -9.257813 14.005479 -55.888672 -33.105473 -1.938927 -132.714844 1.601563 12.812169 33.388672 -40.751953 17.591284 2.109375 14.521484 12.976067 55.019535 9.687502 67.911797 10.937499 -13.203124 6.894531 -4.931640 7.832032 -14.832652 1.396824 15.725138 -11.189648 22.419983 -0.733265 -1.363119 -10.235210 2.351246 -10.731151 5.583404 5.760205 14.050529 17.469122 -3.193080 -0.260530 -9.568995 -13.430439 2.526649 
-1.009249 50.621464 -6.074926 -12.158203 -3.437500 1.425196 0.000000 0.000000 0.000000 15.175782 5.087891 -4.413197 28.505861 -3.505859 -3.193957 -7.470703 -7.988281 0.877549 -12.402344 -9.550781 13.927402 -55.927731 -33.144531 -1.313931 -132.890625 1.572266 12.802465 34.013672 -40.322266 17.562042 2.275391 14.228516 13.015178 55.244141 9.541017 68.243805 11.298828 -13.203124 6.945590 -4.550781 7.265625 -15.439451 2.109798 14.514348 -11.564511 20.695425 -0.469445 -1.591830 -10.356537 3.113628 -10.559330 5.739195 4.520151 13.766452 16.774643 -2.821764 0.131432 -8.952861 -12.855284 3.043640 
-0.525779 50.743019 -6.038125 -11.982422 -2.939453 1.494141 0.000000 0.000000 0.000000 15.166017 4.580079 -4.374220 28.496094 -3.798828 -3.418616 -7.304688 -7.802734 0.888672 -12.246094 -10.019531 13.808595 -55.761719 -33.125000 -1.308594 -132.890625 1.572266 12.802465 34.267578 -39.960938 17.708574 2.431641 13.750000 13.017578 55.468750 9.384766 68.409798 11.660157 -13.046876 6.955330 -4.296875 6.337891 -16.035152 2.968907 13.395323 -11.643309 18.563202 -0.713441 -1.194247 -10.236344 3.653414 -9.702946 5.806144 2.909151 13.077264 15.752388 -2.675642 0.300574 -8.761902 -12.377209 3.300554 
-0.007078 50.871128 -5.989348 -11.962891 -2.236328 1.699219 0.000000 0.000000 0.000000 15.156251 4.072266 -4.345009 28.457031 -4.130859 -3.438204 -7.304687 -7.626953 0.731126 -12.099608 -10.478515 13.702948 -55.380856 -33.251953 -1.401837 -132.714844 1.601563 12.812169 34.082031 -39.462894 18.206684 2.607422 13.261720 13.025105 55.869137 9.277344 68.720703 12.197266 -13.066405 7.021485 -4.208984 5.253906 -16.259766 4.023773 12.255153 -10.813107 16.288258 -0.713387 -1.072308 -9.390754 3.173510 -8.970779 6.446983 1.386809 12.612755 15.084541 -2.483051 -0.009179 -8.629930 -11.660501 3.847847 
0.538758 50.989502 -5.927844 -11.787109 -1.376953 1.855242 0.000000 0.000000 0.000000 15.322266 3.554688 -4.296270 28.447268 -4.433594 -3.662864 -7.304688 -7.460938 0.742188 -11.943359 -10.947265 13.595604 -55.205074 -33.203125 -1.460425 -132.714844 1.601563 12.812169 33.916016 -38.984379 18.603514 2.773438 12.783204 13.034949 56.259766 9.335938 69.073853 12.548829 -13.076174 7.062756 -4.101562 4.150391 -16.649683 5.251040 10.645436 -10.248920 14.006955 -0.733666 -0.816278 -8.532640 2.453792 -8.142690 6.800785 -0.359743 11.737787 14.221910 -2.316397 -0.025434 -8.408285 -10.901807 4.255713 
1.104259 51.084061 -5.850946 -11.787109 -0.693359 2.060428 0.000000 0.000000 0.000000 15.302733 3.046875 -4.267578 28.574219 -4.814454 -3.526210 -7.314454 -7.275390 0.761719 -11.582031 -11.416015 13.654277 -54.990231 -33.349609 -1.567867 -132.714844 1.601563 12.812169 34.033203 -38.798828 18.890366 3.085938 12.353517 13.201036 56.503906 9.550781 69.933266 12.724610 -13.076174 7.092053 -3.876953 3.134766 -17.783205 6.228533 9.321699 -10.024474 11.717611 -0.772893 -0.707132 -7.701601 2.382361 -7.388065 7.127079 -1.912532 10.506337 13.561004 -1.975122 0.036146 -8.585003 -10.091492 4.805921 
1.682917 51.151733 -5.755103 -11.787109 0.000000 2.109375 0.000000 0.000000 0.000000 15.478517 2.539063 -4.042536 28.378906 -5.117188 -3.721574 -7.480468 -7.099609 0.623793 -11.435548 -11.884766 13.525392 -54.941410 -33.505859 -1.572257 -132.539063 1.621094 12.821990 34.443359 -39.121094 18.763372 3.242188 11.875000 13.222657 56.542969 9.912110 70.792694 12.724610 -13.076174 7.092053 -3.662110 2.109375 -19.238283 7.468719 8.161146 -9.646151 9.616227 -0.743432 -0.610600 -7.037050 2.261956 -6.477183 7.859652 -3.689703 8.907925 12.864182 -1.806598 0.300804 -8.208822 -8.944544 5.541666 
2.268180 51.205856 -5.640962 -12.148438 0.341797 2.373103 0.000000 0.000000 0.000000 15.644529 2.187500 -3.955078 28.378906 -5.488281 -3.702106 -7.666015 -6.923828 0.487104 -11.240234 -12.216798 13.664176 -54.677734 -33.837887 -1.519108 -132.373047 1.650391 12.831750 34.687500 -39.443356 18.759766 3.388672 11.572265 13.408203 56.777340 10.292969 71.865234 12.724610 -13.076174 7.092053 -3.457031 1.210938 -20.888466 8.738490 7.146375 -9.274370 7.696856 -0.742879 -0.515153 -6.187963 1.904295 -5.684413 8.626578 -5.190423 7.308771 11.643610 -1.670028 0.470259 -7.877661 -7.218735 6.390526 
2.853827 51.259403 -5.515935 -12.490233 0.683594 2.480585 0.000000 0.000000 0.000000 15.830078 2.011719 -3.818016 28.691404 -5.478516 -3.740235 -7.841796 -6.943359 0.330851 -10.996094 -12.402344 13.964845 -54.609371 -34.003906 -1.538662 -132.197266 1.679688 12.841512 34.570313 -39.638676 18.734007 3.496094 11.474609 13.786678 56.796875 10.644531 72.404144 12.724610 -13.076174 7.092053 -3.222656 0.234375 -21.835939 10.156354 6.279201 -8.698521 5.893025 -0.721925 -0.433988 -5.516291 1.489351 -4.895050 10.315477 -6.654202 5.546994 9.926453 -1.142968 0.807594 -7.330143 -6.389543 6.973371 
3.434413 51.307167 -5.391613 -12.851563 0.839844 2.617188 0.000000 0.000000 0.000000 15.996095 1.679688 -3.730183 28.662109 -5.615234 -3.848612 -7.841797 -6.767579 0.351563 -10.791016 -12.734375 14.072266 -54.580074 -34.189453 -1.372674 -132.197266 1.679688 12.841512 34.550785 -39.453125 18.568014 3.632813 11.171875 13.974609 56.953125 11.025392 72.912025 12.724610 -13.076174 7.092053 -2.988281 -0.517578 -22.275478 11.154609 5.376337 -8.514890 4.857233 -0.732805 -0.398068 -4.865557 1.511665 -4.118827 12.144348 -7.808173 4.303319 7.526287 -0.441421 0.617200 -6.448576 -5.269645 7.276335 
4.007094 51.330929 -5.281126 -13.203124 0.839844 2.607565 0.000000 0.000000 0.000000 16.162109 1.513672 -3.613281 28.808594 -5.644531 -3.702132 -7.841797 -6.582031 0.195312 -10.585938 -12.890625 14.218751 -54.521484 -34.384762 -1.226215 -132.197266 1.679688 12.841512 34.521484 -39.082031 18.251953 3.779297 11.064454 14.148516 57.128906 11.210938 73.078072 12.724610 -13.076174 7.092053 -2.783203 -0.800781 -21.884764 11.823069 4.665783 -8.264501 4.342046 -0.557539 -0.576761 -4.681157 0.889240 -3.248919 13.260649 -9.109386 3.183180 6.125038 0.280938 0.428725 -5.863841 -3.860163 7.331233 
4.571488 51.321339 -5.195875 -13.544922 1.025391 2.734550 0.000000 0.000000 0.000000 16.162111 1.181641 -3.525189 28.808594 -5.957031 -3.877967 -7.841796 -6.415894 0.037971 -10.429687 -13.183593 14.162385 -54.482422 -34.580078 -1.167650 -132.373047 1.650391 12.831750 34.462891 -38.505856 17.757593 3.945313 10.751953 14.158335 57.314453 11.416016 73.410133 12.910156 -13.085938 7.131117 -2.382813 -1.005859 -20.966969 11.954123 3.600256 -8.274590 4.725891 -0.568436 -0.544618 -4.889456 1.006296 -2.615503 13.581963 -9.958483 1.593524 6.470281 0.467235 0.606044 -5.944866 -2.626372 7.487878 
5.126770 51.283169 -5.138709 -13.544922 1.181641 2.695514 0.000000 0.000000 0.000000 15.996095 0.839844 -3.447122 28.789063 -6.074219 -4.014705 -7.675781 -6.240234 0.038001 -10.312500 -13.447266 13.937819 -54.541016 -34.414063 -0.859374 -132.373047 1.650391 12.831750 34.404297 -37.968750 17.552582 4.140625 10.449220 14.013673 57.509769 11.445313 73.732407 12.910156 -13.085938 7.131117 -1.992188 -1.025388 -19.892632 11.826369 2.577693 -8.098590 5.583322 -0.556318 -0.249168 -5.390269 0.421982 -1.933125 12.770717 -11.061361 0.345575 8.758687 0.271630 0.886371 -6.782238 -1.925481 7.439303 
5.668799 51.225235 -5.104061 -13.378906 1.523496 2.256019 0.000000 0.000000 0.000000 15.810548 0.322266 -3.261664 28.769531 -6.425782 -3.917108 -7.675781 -6.240234 -0.137780 -10.048828 -13.847657 13.654681 -54.443359 -34.238277 -0.669555 -132.539063 1.621094 12.821990 34.580078 -37.539063 16.888582 4.501953 9.999869 13.865677 57.880859 11.513672 73.888672 13.095703 -13.085938 7.148438 -1.943359 -0.878906 -18.672026 11.491577 1.522751 -7.517696 6.493423 -0.567555 -0.298449 -5.961897 -0.048729 -0.948416 11.158360 -12.250409 -0.713567 12.103868 0.249088 0.854303 -7.938786 -0.161871 7.068114 
6.187261 51.156067 -5.080911 -13.378906 2.041094 1.621361 0.000000 0.000000 0.000000 15.634766 -0.351563 -3.095763 28.593750 -7.070312 -4.083233 -7.509766 -6.054688 -0.136719 -9.785156 -14.414064 13.381339 -54.111328 -34.199219 -0.650018 -132.539063 1.621094 12.821990 34.990234 -37.265625 15.941353 4.853516 9.384767 13.738642 58.203121 11.728517 74.033203 13.271484 -13.095703 7.170181 -1.894531 -0.849609 -17.089802 11.611412 0.126729 -6.890660 6.843976 -0.410239 -0.131299 -6.132348 0.095463 -0.341635 9.241897 -13.527521 -1.488632 16.154533 0.135618 0.770956 -8.885020 1.183433 6.946747 
